<?xml version="1.0" encoding="utf-8"?>
<!-- Generator: Adobe Illustrator 27.3.1, SVG Export Plug-In . SVG Version: 6.00 Build 0)  -->
<svg version="1.1" id="레이어_1" xmlns="http://www.w3.org/2000/svg" xmlns:xlink="http://www.w3.org/1999/xlink" x="0px"
	 y="0px" viewBox="0 0 397 333.89" style="enable-background:new 0 0 397 333.89;" xml:space="preserve">
<style type="text/css">
	.st0{fill:#183163;}
	.st1{fill:#F5A200;}
	.st2{fill:#ED6C00;}
</style>
<g>
	<g>
		<path class="st0" d="M390.43,147.28c-0.05-9.14-3.51-17.72-9.74-24.14c-6.18-6.35-14.42-9.86-23.21-9.86h-4.33l0.04-20.54
			c-0.7-14.66-10.53-27.39-24.03-31.28c-3.28-6.63-8.34-12.19-14.69-16.14l-39.58-24.63c-7.75-4.83-15.58-7.38-22.62-7.38
			c-0.65,0-1.3,0.02-1.93,0.07c-6.36,0.42-11.92,3.01-16.23,7.53c-9.32-10.34-24.34-16.45-40.69-16.45c-1.38,0-2.76,0.05-4.2,0.13
			l-1.88,0.16c-5.51,0.49-10.98,1.63-16.26,3.36L93.31,33.57C73.28,40.14,57.16,54.8,50.93,72.03c-10.36,1.69-19.31,8.38-24.1,18.1
			L8.05,128.16c-4.01,8.13-4.75,17.4-2.08,26.1c2.02,6.57,5.82,12.25,11.01,16.47c1.1,9.13,5.76,20.74,15.72,26.94l35.22,21.92
			c5.09,3.16,10.88,4.83,16.75,4.83c0.88,0,1.78-0.03,2.41-0.1h2.12c2.31,16.56,16.22,29.28,32.42,29.28h61.29
			c8.93,0,17.17-3.66,23.21-10.29c6.09-6.7,9.2-15.6,8.74-24.97v-13.22c0-0.54-0.2-1.04-0.56-1.42l-51.58-51.07
			c1.24-2.29,1.88-4.87,1.88-7.51c0-8.49-6.62-15.41-14.75-15.41s-14.75,6.92-14.75,15.41c0,8.48,6.62,15.39,14.75,15.39
			c1.85,0,3.72-0.38,5.46-1.11l49.72,49.14v10.06c0.33,6.74-1.82,13.01-6.04,17.64c-4.18,4.58-9.9,7.11-16.09,7.11h-61.29
			c-10.96,0-20.25-8.04-22.45-19.04H118c2.11,5.99,7.6,10.06,13.82,10.06c8.13,0,14.75-6.9,14.75-15.39s-6.62-15.39-14.75-15.39
			c-6.31,0-11.95,4.31-13.95,10.47H86.88l-0.29,0.02c-0.63,0.06-1.26,0.09-1.89,0.09c-4.12,0-8.19-1.18-11.75-3.4l-35.23-21.91
			c-4.42-2.75-8.01-7.88-9.87-14.02l49.91,0.18c2.06,6.13,7.57,10.28,13.9,10.28c8.13,0,14.75-6.91,14.75-15.4
			c0-8.49-6.62-15.39-14.75-15.39c-6.32,0-11.83,4.13-13.89,10.24l-52.09-0.18c-4.95-2.98-8.61-7.74-10.35-13.43
			c-1.87-6.09-1.35-12.58,1.45-18.27l18.79-38.04c2.7-5.46,7.27-9.57,12.81-11.59l-0.02,22.19c-5.86,2.14-9.84,7.9-9.84,14.5
			c0,8.49,6.62,15.39,14.75,15.39s14.75-6.9,14.75-15.39c0-6.61-3.98-12.36-9.84-14.5V83.71c0.06-0.55,0.14-1.12,0.25-1.71
			c2.58,0.28,5.06,1.01,7.41,2.17l25.27,26.87c-0.73,1.86-1.12,3.85-1.12,5.84c0,8.49,6.62,15.4,14.75,15.4s14.75-6.91,14.75-15.4
			c0-8.49-6.61-15.39-14.75-15.39c-2.46,0-4.92,0.66-7.07,1.89L72.22,76.33c-0.07-0.08-0.15-0.15-0.24-0.21l-0.75-0.57
			c-0.07-0.06-0.16-0.11-0.24-0.15c-2.96-1.6-6.12-2.7-9.42-3.28c5.05-10.7,15.14-20.22,27.59-25.97l43.67,44.64
			c-0.68,1.81-1.04,3.73-1.04,5.64c0,8.49,6.61,15.4,14.75,15.4s14.75-6.91,14.75-15.4s-6.62-15.39-14.75-15.39
			c-2.52,0-5.04,0.7-7.25,2L99.4,42.32l37.82-12.36l13.12,14.37c-0.88,2.01-1.34,4.19-1.34,6.4c0,8.49,6.62,15.39,14.74,15.39
			c8.14,0,14.76-6.9,14.76-15.39s-6.62-15.39-14.76-15.39c-2.29,0-4.53,0.56-6.57,1.63l-9.45-10.44l26.28-8.6
			c3.88-1.27,7.87-2.17,11.88-2.69l17.3,22.08v89.64c-5.63,2.26-9.46,7.96-9.46,14.37c0,8.48,6.62,15.4,14.75,15.4
			s14.75-6.91,14.75-15.4c0-6.69-4.21-12.6-10.22-14.64V34.34c0-0.47-0.15-0.91-0.43-1.27L198.34,14.9
			c17.04,1.41,30.44,10.39,34.78,23.64v260.48c-5.87,2.14-9.84,7.89-9.84,14.51c0,8.49,6.62,15.39,14.75,15.39
			c8.14,0,14.75-6.9,14.75-15.39c0-6.61-3.97-12.37-9.83-14.51V37.4c0-0.16-0.02-0.31-0.06-0.47l-0.17-0.73
			c-0.69-2.32-1.62-4.59-2.75-6.78c2.78-3.55,6.46-5.51,10.96-5.82c0.43-0.03,0.86-0.04,1.31-0.04c5.27,0,11.35,2.06,17.59,5.93
			l13.2,8.21l-8.39,13.41c-1.1-0.27-2.22-0.41-3.35-0.41c-8.14,0-14.76,6.9-14.76,15.39s6.62,15.4,14.76,15.4
			c8.13,0,14.75-6.9,14.75-15.4c0-3.44-1.1-6.74-3.12-9.44l8.56-13.7l17.95,11.17c11.48,7.15,16.73,20.88,12.24,31.99l-6.46,11.86
			c-0.62-0.09-1.25-0.12-1.87-0.12c-8.13,0-14.75,6.89-14.75,15.37c0,8.5,6.62,15.41,14.75,15.41c8.14,0,14.75-6.91,14.75-15.41
			c0-3.98-1.48-7.76-4.1-10.62l6.4-11.73l0.19-0.38c2.1-5.06,2.88-10.58,2.31-16.17c6.12,4.13,10.12,11.14,10.48,18.66l-0.06,23.96
			c0,0-0.72,6.55,7.64,6.61l6.78-0.01c6.02,0,11.72,2.45,16.05,6.91c4.37,4.5,6.8,10.51,6.84,16.9l0.26,42.79
			c0.04,6.4-2.31,12.43-6.64,16.99c-4.3,4.56-10.05,7.1-16.17,7.13l-6.61,0.04c-1.3,0-2.62-0.12-3.92-0.36
			c-0.04,0-0.09-0.02-0.14-0.02c-7.53-1.43-13.93-6.79-16.95-14.1l23.85-40.6c1.63,0.62,3.35,0.96,5.07,0.96
			c8.13,0,14.74-6.91,14.74-15.39c0-8.49-6.61-15.39-14.74-15.39c-8.14,0-14.75,6.9-14.75,15.39c0,2.78,0.71,5.45,2.05,7.81
			l-26.2,44.6c-0.18,0.31-0.28,0.67-0.28,1.05v1.67c0,0.15,0.02,0.31,0.06,0.46l0.2,0.81c3.42,10.69,11.89,19.07,22.26,22.11
			c0.3,1.48,0.47,2.99,0.5,4.47l0.13,14.75c0.12,6.41-2.16,12.47-6.42,17.08c-4.24,4.61-9.97,7.22-16.14,7.35l-9.71,0.38v-38.27
			c6.01-2.03,10.21-7.93,10.21-14.63c0-8.49-6.62-15.4-14.75-15.4s-14.75,6.91-14.75,15.4c0,6.41,3.82,12.11,9.46,14.37v38.92
			l-1.94,0.08c-12.4,0-22.69-10.54-22.93-23.5l-0.12-6.57v-103.9h-9.83l0.01,104l0.08,6.63c0.34,18.49,15.06,33.55,32.85,33.55
			l21.62-0.83c8.75-0.18,16.92-3.91,23-10.49c6.07-6.6,9.32-15.25,9.15-24.38l-0.12-14.77c-0.02-1-0.09-1.99-0.19-2.99l5.31-0.03
			c18.08-0.12,32.69-15.58,32.57-34.45L390.43,147.28z M149.84,152.25c-3.77,0-6.84-3.2-6.84-7.13c0-3.94,3.06-7.15,6.84-7.15
			c3.77,0,6.84,3.21,6.84,7.15C156.68,149.05,153.61,152.25,149.84,152.25z M131.81,211.85c3.77,0,6.84,3.2,6.84,7.13
			c0,3.94-3.07,7.15-6.84,7.15c-3.77,0-6.84-3.21-6.84-7.15C124.97,215.05,128.04,211.85,131.81,211.85z M91.67,162.76
			c3.77,0,6.85,3.2,6.85,7.13c0,3.95-3.07,7.14-6.85,7.14c-3.77,0-6.84-3.2-6.84-7.14C84.83,165.96,87.9,162.76,91.67,162.76z
			 M60.12,119.92c0,3.94-3.06,7.14-6.83,7.14c-3.77,0-6.84-3.2-6.84-7.14c0-3.93,3.07-7.14,6.84-7.14
			C57.05,112.78,60.12,115.99,60.12,119.92z M104.74,109.73c3.77,0,6.84,3.21,6.84,7.14c0,3.94-3.07,7.13-6.84,7.13
			c-3.77,0-6.84-3.19-6.84-7.13C97.9,112.93,100.97,109.73,104.74,109.73z M146.56,89.26c3.77,0,6.85,3.21,6.85,7.15
			c0,3.93-3.07,7.13-6.85,7.13c-3.77,0-6.83-3.2-6.83-7.13C139.72,92.47,142.79,89.26,146.56,89.26z M163.77,43.57
			c3.78,0,6.85,3.2,6.85,7.13c0,3.94-3.07,7.14-6.85,7.14c-3.77,0-6.84-3.2-6.84-7.14C156.93,46.77,160,43.57,163.77,43.57z
			 M208.49,134.15c3.77,0,6.84,3.21,6.84,7.14s-3.07,7.13-6.84,7.13c-3.77,0-6.84-3.21-6.84-7.13
			C201.64,137.36,204.71,134.15,208.49,134.15z M244.89,313.53c0,3.94-3.07,7.13-6.84,7.13c-3.77,0-6.84-3.19-6.84-7.13
			c0-3.93,3.07-7.14,6.84-7.14S244.89,309.6,244.89,313.53z M271.31,73.23c-3.77,0-6.84-3.2-6.84-7.14c0-3.93,3.08-7.13,6.84-7.13
			c3.78,0,6.84,3.2,6.84,7.13C278.15,70.04,275.09,73.23,271.31,73.23z M313.34,120.37c-3.76,0-6.83-3.21-6.83-7.15
			c0-3.93,3.07-7.13,6.83-7.13c3.77,0,6.84,3.2,6.84,7.13C320.17,117.16,317.11,120.37,313.34,120.37z M359.35,137.64
			c3.77,0,6.84,3.2,6.84,7.13c0,3.94-3.06,7.14-6.84,7.14s-6.84-3.21-6.84-7.14S355.58,137.64,359.35,137.64z M299.66,214.4
			c0-3.93,3.07-7.14,6.84-7.14s6.84,3.21,6.84,7.14c0,3.94-3.06,7.14-6.84,7.14C302.73,221.54,299.66,218.34,299.66,214.4z"/>
		<g>
			<path class="st1" d="M294.39,133.05c0,13.31-10.33,24.09-23.09,24.09c-12.75,0-23.08-10.78-23.08-24.09
				c0-13.32,10.33-24.09,23.08-24.09C284.06,108.95,294.39,119.72,294.39,133.05z"/>
			<path class="st2" d="M271.3,119.17c-7.32,0-13.28,6.22-13.28,13.87c0,7.64,5.96,13.86,13.28,13.86c7.33,0,13.28-6.22,13.28-13.86
				C284.58,125.39,278.63,119.17,271.3,119.17z"/>
		</g>
	</g>
</g>
</svg>
